<?xml version="1.0" encoding="UTF-8"?><svg id="uuid-38001665-d3b5-4ca4-a6a4-104ab6c1d3a2" xmlns="http://www.w3.org/2000/svg" viewBox="0 0 511 512"><defs><style>.uuid-49a6a77d-7aed-4bb3-8aad-4e1a4870ff40{fill:#c9f3ff;}.uuid-5eeec314-b664-44ff-b59c-99be1c134b03{fill:#ffb954;}.uuid-47afac42-f92d-4b03-8964-d7fd32921501{fill:#ff5d5d;}</style></defs><path d="m231.96,434.05c.2-5.77,7.85-12.21,14.3-12.03,5.29.15,9.71,4.78,9.59,10.04-.14,5.95-8.09,12.59-14.69,12.26-5.48-.27-9.39-4.63-9.19-10.27Z"/><path d="m284.37,398.23c5.32.1,9.66,4.62,9.62,10.01-.04,5.68-7.67,12.48-14.02,12.49-5.53,0-10.07-4.71-9.9-10.29.17-5.69,7.94-12.33,14.29-12.21Z"/><path d="m332.14,384.86c-.24,5.8-8.08,12.38-14.41,12.1-5.34-.24-9.69-4.99-9.43-10.31.28-5.9,7.99-12.26,14.52-11.99,5.59.23,9.55,4.57,9.32,10.21Z"/><path d="m356.05,373.11c-5.53-.16-9.54-4.51-9.38-10.17.17-5.98,7.58-12.21,14.32-12.03,5.54.15,9.65,4.56,9.41,10.11-.25,5.97-7.75,12.28-14.35,12.09Z"/><path d="m302.89,209.08c.15,5.21-4.35,9.88-9.63,10.01-5.62.14-10.56-4.58-10.69-10.19-.13-5.38,4.14-9.85,9.55-10,5.55-.16,10.61,4.63,10.78,10.18Z"/><path d="m260.98,166.53c5.83-.08,13.32,7.4,13.38,13.36.06,5.39-4.42,10-9.73,10.03-5.68.03-13.47-7.7-13.53-13.43-.06-5.22,4.57-9.89,9.87-9.96Z"/><path class="uuid-5eeec314-b664-44ff-b59c-99be1c134b03" d="m213.19,232.63l-.04-.04c-.14-.16-.29-.31-.45-.47-.13-.14-.27-.28-.42-.42l-.04-.04c-.15-.17-.32-.33-.48-.48-.06-.06-.11-.11-.16-.17-.62-.62-1.26-1.24-1.91-1.86-.62-.59-1.25-1.17-1.88-1.75-.02-.01-.03-.03-.05-.04-.14-.14-.29-.27-.43-.4-.21-.19-.43-.39-.65-.57-.01-.02-.03-.04-.05-.05-.04-.03-.08-.07-.12-.1-19.77-17.3-45.31-26.33-71.03-26.94-.82-.03-1.65-.03-2.48-.03s-1.66.01-2.49.03c-.92.02-1.84.06-2.76.1-.89.04-1.78.09-2.67.15-.09.01-.18.02-.27.02-.86.07-1.72.14-2.58.22-.91.09-1.83.18-2.74.29-.92.11-1.83.23-2.74.36-.92.13-1.83.27-2.73.42-.79.13-1.57.27-2.36.41-1.2.23-2.4.47-3.6.74-.73.16-1.45.32-2.17.5-.89.21-1.79.44-2.68.68-.82.22-1.65.45-2.47.69-.13.03-.26.07-.39.11-.82.24-1.63.49-2.44.75-.73.23-1.46.47-2.18.72-2.15.73-4.28,1.53-6.39,2.4-.53.21-1.06.43-1.59.66-.2.09-.41.18-.62.27-.61.26-1.22.53-1.82.82-.24.1-.47.21-.71.33-.55.25-1.1.51-1.65.78-.23.11-.46.22-.69.34-.75.36-1.49.74-2.22,1.13-.82.43-1.64.87-2.45,1.32-.71.39-1.42.8-2.13,1.22-.21.12-.42.24-.63.37-.68.4-1.35.82-2.02,1.24-.68.42-1.36.86-2.03,1.31-.34.21-.67.43-1,.67-.39.25-.78.52-1.16.78-.35.25-.71.5-1.06.75-.31.22-.62.45-.93.67-.47.34-.94.69-1.4,1.04-.53.4-1.05.8-1.57,1.22-.59.45-1.17.92-1.74,1.39-.87.71-1.72,1.43-2.56,2.17-.02.02-.04.03-.05.05-.03.03-.07.06-.1.09-.32.28-.64.56-.95.85-.01.01-.02.02-.03.03-.65.57-1.29,1.17-1.93,1.79-.71.66-1.4,1.34-2.07,2.03-.18.16-.34.32-.48.48-.2.19-.39.38-.57.57-.11.12-.23.24-.34.36-.73.76-1.45,1.53-2.15,2.3-1.27,1.39-2.51,2.81-3.7,4.24-1.15,1.38-2.26,2.77-3.34,4.18t-.01.02c-.36.46-.71.92-1.04,1.39-.31.4-.6.8-.89,1.2-.55.76-1.09,1.53-1.62,2.29-.05.08-.1.15-.16.23-.48.71-.96,1.43-1.43,2.15-.65.98-1.27,1.98-1.88,2.98-.37.59-.72,1.18-1.07,1.77-.47.8-.93,1.61-1.38,2.41-.45.81-.89,1.62-1.32,2.44-.43.81-.84,1.63-1.25,2.45-.87,1.75-1.68,3.5-2.45,5.28-.32.73-.63,1.46-.93,2.19-.46,1.13-.9,2.25-1.31,3.39-.22.56-.42,1.12-.62,1.68-.3.85-.59,1.7-.87,2.55-.82,2.52-1.55,5.06-2.19,7.61-.22.87-.43,1.74-.62,2.62-.21.91-.4,1.83-.58,2.74-.34,1.72-.64,3.44-.89,5.17-.17,1.12-.31,2.23-.44,3.35-.08.67-.16,1.34-.22,2.02-.47,4.81-.62,9.65-.45,14.48,0,.41.03.82.05,1.23.03.57.06,1.13.09,1.7.05.75.1,1.5.17,2.25.23,2.79.56,5.57,1.01,8.34.07.43.14.85.21,1.27.1.57.2,1.13.3,1.69.14.75.29,1.5.45,2.25.9,4.31,2.06,8.59,3.49,12.82.15.45.3.89.46,1.34.16.47.33.94.5,1.41.27.74.54,1.47.83,2.2.22.58.45,1.16.69,1.73.17.44.35.88.55,1.32.85,2.04,1.76,4.06,2.75,6.07.27.57.56,1.14.85,1.7.36.72.73,1.43,1.11,2.14.3.56.6,1.12.91,1.68.34.61.69,1.22,1.05,1.83,2.48,4.25,5.26,8.42,8.34,12.48,3.1,4.09,6.21,8.17,9.35,12.24.06.09.13.18.2.27.17.22.34.43.5.64,1.43,1.84,2.84,3.67,4.24,5.52.04.05.08.1.12.15,17.45,22.68,35.18,45.17,52.84,67.7.05.06.09.12.14.18,2.64,3.29,5.22,6.62,7.81,9.96.05.07.1.14.16.21,2.51,3.21,5.02,6.42,7.53,9.63.53.69,1.05,1.29,1.55,1.81.55.57,1.1,1.04,1.62,1.41.14.1.27.19.4.27.14.09.29.17.42.25.26.13.51.24.75.33.26.09.51.16.76.21.51.1,1.02.1,1.53,0,.25-.05.5-.12.76-.21.25-.08.5-.2.75-.33.14-.07.28-.16.42-.25.26-.16.53-.35.8-.57.2-.16.4-.33.6-.52.17-.15.34-.32.52-.49l.1-.1c.5-.52,1.02-1.12,1.55-1.81,2.51-3.21,5.02-6.42,7.53-9.63.05-.07.11-.14.16-.21,2.53-3.26,5.05-6.51,7.62-9.73.07-.08.13-.15.19-.23,15.5-19.77,31.04-39.5,46.41-59.36,2.19-2.84,4.38-5.68,6.57-8.52,1.47-1.89,2.92-3.78,4.36-5.67.14-.16.26-.33.39-.49,3.23-4.21,6.45-8.43,9.66-12.66.44-.58.87-1.16,1.3-1.75.29-.4.58-.8.86-1.2.32-.43.63-.87.93-1.31.39-.55.77-1.11,1.14-1.66.05-.08.11-.16.16-.25.4-.59.79-1.19,1.17-1.79.48-.73.94-1.46,1.38-2.19.43-.69.84-1.38,1.25-2.08.41-.69.81-1.38,1.2-2.08.3-.56.61-1.12.91-1.68.28-.53.56-1.06.84-1.6,22.3-43.31,15.15-94.14-20.1-130.95Zm-80.19,156.13c-42.05,0-76.62-34.59-76.64-76.68-.03-42.05,34.55-76.62,76.64-76.62,42.1,0,76.67,34.57,76.64,76.63-.02,42.09-34.6,76.68-76.64,76.67Z"/><path d="m56.35,312.09c.02,42.09,34.6,76.68,76.64,76.67,42.05,0,76.62-34.59,76.64-76.68.03-42.05-34.55-76.62-76.64-76.62-42.1,0-76.67,34.57-76.64,76.63Zm19.99-.08c.09-31.14,25.68-56.65,56.72-56.56,31.16.1,56.66,25.67,56.58,56.71-.08,31.11-25.7,56.68-56.72,56.61-31.07-.07-56.67-25.76-56.58-56.76Z"/><path d="m86.99,440.49c-.05,5.37-4.55,9.74-9.98,9.69-5.37-.05-9.92-4.6-9.86-9.87.06-5.28,4.7-9.78,10.04-9.74,5.35.04,9.85,4.6,9.8,9.92Z"/><path d="m235.72,396.62c-26.99,34.52-53.94,69.06-80.81,103.68-4.47,5.76-10.25,9.28-16.91,11.7h-10c-9.41-2.86-15.63-9.54-21.2-17.23-5.28-7.28-11.08-14.18-16.54-21.32-2.88-3.78-3.5-7.97-.88-12.11,2.25-3.56,5.89-5.42,9.86-4.18,2.8.87,5.63,2.93,7.53,5.22,1.46,1.75,2.89,3.52,4.32,5.31.05.06.09.12.14.18,2.64,3.29,5.22,6.62,7.81,9.96.05.07.1.14.16.21,2.45,3.16,4.89,6.33,7.36,9.47.59.75,1.16,1.41,1.72,1.97.55.57,1.1,1.04,1.62,1.41.14.1.27.19.4.27.14.09.29.17.42.25.26.13.51.24.75.33.26.09.51.16.76.21.51.1,1.02.1,1.53,0,.25-.04.51-.11.76-.21.25-.08.5-.2.75-.33.14-.07.28-.16.42-.25.26-.16.53-.35.8-.57.2-.16.4-.33.6-.52.17-.15.34-.32.52-.49l.1-.1c.5-.52,1.02-1.12,1.55-1.81,2.51-3.21,5.02-6.42,7.53-9.63.05-.07.11-.14.16-.21,2.54-3.24,5.09-6.49,7.62-9.73.07-.08.13-.15.19-.23,15.5-19.77,31.04-39.5,46.41-59.36,2.2-2.84,4.39-5.67,6.57-8.52,1.47-1.89,2.92-3.78,4.36-5.67.14-.16.26-.33.39-.49,3.23-4.21,6.45-8.43,9.66-12.66.44-.58.87-1.16,1.3-1.75.29-.4.58-.8.86-1.2.32-.43.63-.87.93-1.31.39-.55.77-1.11,1.14-1.66.05-.08.11-.16.16-.25.4-.59.79-1.19,1.17-1.79.48-.73.94-1.46,1.38-2.19.43-.69.84-1.38,1.25-2.08.41-.69.81-1.38,1.2-2.08.3-.56.61-1.12.91-1.68.29-.53.57-1.06.84-1.6,22.58-43.48,14.97-94.86-20.1-130.95l-.04-.04c-.14-.16-.29-.31-.45-.47-.13-.14-.27-.28-.42-.42l-.04-.04c-.15-.17-.32-.33-.48-.48-.06-.06-.11-.11-.16-.17-.62-.62-1.26-1.24-1.91-1.86-.62-.59-1.25-1.17-1.88-1.75-.02-.01-.03-.03-.05-.04-.14-.14-.29-.27-.43-.4-.21-.19-.43-.39-.65-.57-.01-.02-.03-.04-.05-.05-.04-.03-.08-.07-.12-.1-19.8-17.55-45.33-26.47-71.03-26.94-.82-.03-1.65-.03-2.48-.03s-1.66.01-2.49.03c-.92.02-1.84.06-2.76.1-.89.04-1.78.09-2.67.15-.09.01-.18.02-.27.02-.86.07-1.72.14-2.58.22-.91.09-1.83.18-2.74.29-.92.11-1.83.23-2.74.36-.92.13-1.83.27-2.73.42-.79.13-1.57.27-2.36.41-1.2.23-2.4.47-3.6.74-.73.16-1.45.32-2.17.5-.89.21-1.79.44-2.68.68-.82.22-1.65.45-2.47.69-.13.03-.26.07-.39.11-.82.24-1.63.49-2.44.75-.73.23-1.46.47-2.18.72-2.15.73-4.28,1.53-6.39,2.4-.53.21-1.06.43-1.59.66-.2.09-.41.18-.62.27-.61.26-1.22.53-1.82.82-.24.1-.47.21-.71.33-.55.25-1.1.51-1.65.78-.23.11-.46.22-.69.34-.75.36-1.49.74-2.22,1.13-.82.43-1.64.87-2.45,1.32-.71.39-1.42.8-2.13,1.22-.21.12-.42.24-.63.37-.68.4-1.35.82-2.02,1.24-.68.42-1.36.86-2.03,1.31-.33.21-.67.43-1,.67-.39.25-.78.52-1.16.78-.36.25-.71.5-1.06.75-.31.22-.62.45-.93.67-.47.34-.94.69-1.4,1.04-.53.4-1.05.8-1.57,1.22-.59.45-1.17.92-1.74,1.39-.87.71-1.72,1.43-2.56,2.17-.02.02-.04.03-.05.05-.03.03-.07.06-.1.09-.32.28-.64.56-.95.85-.01.01-.02.02-.03.03-.65.57-1.29,1.17-1.93,1.79-.71.66-1.4,1.34-2.07,2.03-.18.16-.34.32-.48.48-.2.19-.39.38-.57.57-.11.12-.23.24-.34.36-.73.76-1.45,1.53-2.15,2.3-1.28,1.39-2.51,2.81-3.7,4.24-1.16,1.37-2.27,2.77-3.34,4.18t-.01.02c-.36.46-.71.92-1.04,1.39-.31.4-.61.8-.89,1.2-.55.76-1.09,1.52-1.62,2.29-.05.08-.1.15-.16.23-.49.71-.97,1.43-1.43,2.15-.65.98-1.27,1.98-1.88,2.98-.37.59-.73,1.18-1.07,1.77-.48.8-.94,1.61-1.38,2.41-.46.81-.89,1.62-1.32,2.44-.43.81-.85,1.63-1.25,2.45-.87,1.75-1.68,3.5-2.45,5.28-.32.73-.63,1.46-.93,2.19-.46,1.13-.9,2.25-1.31,3.39-.22.56-.43,1.12-.62,1.68-.3.85-.59,1.7-.87,2.55-.82,2.52-1.55,5.06-2.19,7.61-.22.87-.43,1.74-.62,2.62-.21.91-.4,1.83-.58,2.74-.34,1.72-.64,3.44-.89,5.17-.17,1.12-.31,2.23-.44,3.35-.08.67-.16,1.35-.22,2.02-.47,4.81-.62,9.65-.45,14.48,0,.41.03.82.05,1.23.03.57.06,1.13.09,1.7.05.75.1,1.5.17,2.25.23,2.79.56,5.57,1.01,8.34.06.42.13.85.21,1.27.1.57.2,1.13.3,1.69.14.75.29,1.5.45,2.25.9,4.31,2.06,8.59,3.49,12.82.15.45.3.9.46,1.34.16.47.33.94.5,1.41.27.74.54,1.47.83,2.2.22.58.45,1.16.69,1.73.17.44.35.88.55,1.32.85,2.04,1.76,4.06,2.75,6.07.27.57.56,1.14.85,1.7.36.72.73,1.43,1.11,2.14.3.56.6,1.12.91,1.68.34.61.69,1.22,1.05,1.83,2.55,4.44,5.44,8.79,8.64,13.03,2.97,3.93,6.02,7.8,9.05,11.69.06.09.13.18.2.27.17.22.34.43.5.64,1.4,1.84,2.81,3.68,4.24,5.52.04.05.08.1.12.15.48.64.97,1.29,1.45,1.93,3.64,4.87,3.57,9.94.14,13.68-3.9,4.25-10.14,4.73-14.16.29C14.89,381.87-4.8,343.7,1.02,295.96c6.87-56.28,49.31-102.55,104.8-113.96,72.36-14.88,143.18,31.65,157.42,103.93,8.08,41-1.86,77.87-27.52,110.69Z"/><path d="m410.24,238.21c-31.88.13-58.01-25.8-58.07-57.64-.05-31.6,25.71-57.51,57.44-57.76,31.91-.25,58.06,25.49,58.29,57.38.23,31.8-25.69,57.88-57.66,58.01Zm-.43-20.03c20.73.16,37.96-16.83,38.08-37.55.12-20.43-16.72-37.47-37.35-37.77-20.95-.31-38.51,17-38.34,37.78.17,20.57,17.02,37.38,37.6,37.54Z"/><path class="uuid-47afac42-f92d-4b03-8964-d7fd32921501" d="m410.07,313.74c-7.45-9.54-14.41-18.43-21.35-27.34-14.74-18.92-29.98-37.48-44.07-56.88-20-27.55-22.72-57.5-6.64-87.48,16.05-29.94,42.34-44.76,76.44-43.02,32.39,1.66,56.14,18.13,69.75,47.4,13.38,28.76,10.52,57.09-8.4,82.58-21.13,28.48-43.43,56.08-65.73,84.73Zm.17-75.53c31.97-.13,57.89-26.21,57.66-58.01-.23-31.89-26.38-57.64-58.29-57.38-31.73.25-57.49,26.16-57.44,57.76.05,31.84,26.18,57.77,58.07,57.64Z"/><path d="m511,198c-1.75,5.85-2.72,12.09-5.41,17.47-5.09,10.22-10.2,20.67-17,29.74-19.88,26.51-40.63,52.35-60.95,78.53-5.67,7.3-12.7,11.84-21.94,9.13-4.47-1.31-9.2-4.39-12.09-8.04-22.47-28.29-45.09-56.5-66.6-85.52-39.49-53.28-14.51-132.61,48.1-154.48,55.63-19.43,113.68,9.22,132.11,65.26,1.5,4.56,2.53,9.26,3.78,13.9v34Zm-100.93,115.74c22.31-28.65,44.6-56.25,65.73-84.73,18.91-25.49,21.77-53.82,8.4-82.58-13.61-29.27-37.35-45.74-69.75-47.4-34.1-1.74-60.38,13.08-76.44,43.02-16.08,29.98-13.36,59.93,6.64,87.48,14.09,19.4,29.33,37.95,44.07,56.88,6.94,8.91,13.9,17.8,21.35,27.34Z"/><path class="uuid-49a6a77d-7aed-4bb3-8aad-4e1a4870ff40" d="m229.29,127.32c-4.97-6.34-9.61-12.18-14.17-18.08-6.62-8.56-13.47-16.95-19.7-25.78-9.55-13.54-9.21-32.23.29-45.94,9.39-13.56,26.34-20,43.08-16.37,15.16,3.28,27.72,16.95,30.47,32.79,1.86,10.72,0,20.75-6.34,29.41-10.78,14.73-22.15,29.03-33.63,43.98Z"/><path d="m236,0c8.06,2.93,16.72,4.81,24.08,8.98,30.41,17.24,39.42,57.73,19.16,86.14-10.81,15.17-22.53,29.7-34.25,44.19-8.64,10.68-22.93,10.75-31.53.13-11.41-14.09-22.95-28.16-33.26-43.05-26.39-38.12-6.36-86.47,39.1-95.53.6-.12,1.13-.57,1.7-.87,5,0,10,0,15,0Zm-6.71,127.32c11.49-14.95,22.86-29.25,33.63-43.98,6.33-8.66,8.2-18.68,6.34-29.41-2.75-15.84-15.3-29.51-30.47-32.79-16.75-3.62-33.69,2.82-43.08,16.37-9.5,13.71-9.83,32.4-.29,45.94,6.23,8.83,13.08,17.22,19.7,25.78,4.56,5.9,9.19,11.74,14.17,18.08Z"/></svg>